<svg id="svg" version="1.1" xmlns="http://www.w3.org/2000/svg" xmlns:xlink="http://www.w3.org/1999/xlink" width="400" height="266.6666666666667" viewBox="0, 0, 400,266.6666666666667"><g id="svgg"><path id="path0" d="M77.734 19.311 C 76.617 19.922,76.563 20.206,76.563 25.440 L 76.563 30.469 64.844 30.469 C 50.446 30.469,52.083 29.683,52.083 36.589 L 52.083 41.667 46.790 41.667 C 39.831 41.667,40.365 41.151,40.365 47.868 L 40.365 52.865 37.488 52.865 C 34.742 52.865,34.581 52.895,33.939 53.537 L 33.266 54.210 33.409 59.071 C 33.748 70.564,37.570 78.413,45.288 83.466 C 56.425 90.759,77.643 91.061,92.324 84.136 C 103.606 78.814,114.404 66.491,117.011 55.962 C 117.171 55.312,117.276 55.276,119.506 55.108 C 125.797 54.633,131.771 50.419,131.771 46.456 C 131.771 44.400,124.949 42.646,120.236 43.490 C 119.540 43.614,119.481 43.541,118.872 41.800 C 117.415 37.631,112.814 32.776,111.253 33.760 C 108.416 35.549,106.941 44.220,108.635 49.152 L 109.283 51.039 107.962 51.531 C 106.168 52.199,102.693 52.950,102.357 52.742 C 102.183 52.635,102.083 50.972,102.083 48.201 C 102.083 41.388,102.364 41.667,95.497 41.667 L 90.439 41.667 90.271 40.066 C 90.179 39.186,90.104 34.376,90.104 29.377 L 90.104 20.289 89.465 19.650 C 88.748 18.933,78.943 18.650,77.734 19.311 M268.751 24.151 C 268.016 24.411,267.031 25.115,266.101 26.045 C 263.602 28.544,263.784 25.441,263.863 64.077 L 263.932 97.786 264.659 99.266 C 265.482 100.942,266.744 102.166,268.476 102.967 C 269.644 103.507,269.959 103.517,289.283 103.587 C 304.638 103.643,308.879 103.728,308.786 103.978 C 308.720 104.153,307.692 107.781,306.501 112.038 L 304.336 119.780 299.917 119.851 C 295.158 119.927,294.483 120.134,295.212 121.289 C 295.483 121.718,296.970 121.745,320.443 121.745 C 343.915 121.745,345.403 121.718,345.673 121.289 C 346.402 120.134,345.726 119.927,340.978 119.851 L 336.570 119.780 334.421 112.299 C 333.239 108.184,332.205 104.558,332.124 104.240 L 331.975 103.662 351.599 103.589 L 371.224 103.516 372.536 102.823 C 374.223 101.933,375.827 100.185,376.457 98.552 C 376.936 97.311,376.953 96.084,376.953 63.411 L 376.953 29.557 376.351 28.227 C 375.647 26.671,374.300 25.290,372.656 24.436 L 371.484 23.828 320.703 23.782 C 274.859 23.741,269.808 23.777,268.751 24.151 M375.000 61.849 L 375.000 88.802 320.443 88.802 L 265.885 88.802 265.885 61.849 L 265.885 34.896 320.443 34.896 L 375.000 34.896 375.000 61.849 M178.958 43.542 C 178.735 43.765,178.646 45.434,178.646 49.401 L 178.646 54.948 175.568 54.948 C 168.779 54.948,166.146 57.399,166.146 63.719 L 166.146 66.146 160.839 66.146 C 155.143 66.146,154.809 66.222,154.993 67.481 C 155.125 68.384,156.179 68.528,161.393 68.358 L 166.146 68.203 166.146 72.904 L 166.146 77.604 160.859 77.604 C 155.260 77.604,154.948 77.669,154.948 78.835 C 154.948 79.780,155.709 79.892,161.133 79.748 L 166.146 79.614 166.146 84.208 L 166.146 88.802 161.198 88.802 C 158.477 88.802,156.221 88.782,156.185 88.758 C 155.892 88.560,154.948 89.456,154.948 89.931 C 154.948 91.079,155.273 91.146,160.859 91.146 L 166.146 91.146 166.146 95.828 L 166.146 100.510 160.612 100.581 L 155.078 100.651 155.078 101.563 L 155.078 102.474 160.585 102.544 L 166.091 102.614 166.195 105.669 C 166.401 111.771,168.380 113.603,174.935 113.761 L 178.646 113.851 178.646 119.385 C 178.646 125.123,178.771 125.781,179.863 125.781 C 180.846 125.781,180.990 124.959,180.990 119.315 L 180.990 113.802 185.677 113.802 L 190.365 113.802 190.365 119.522 C 190.365 124.976,190.389 125.255,190.885 125.521 C 192.316 126.287,192.448 125.780,192.448 119.522 L 192.448 113.802 197.266 113.802 L 202.083 113.802 202.083 119.522 C 202.083 124.911,202.113 125.258,202.587 125.512 C 204.012 126.274,204.167 125.674,204.167 119.382 L 204.167 113.802 208.854 113.802 L 213.542 113.802 213.542 119.213 C 213.542 124.787,213.715 125.781,214.688 125.781 C 215.749 125.781,215.885 125.044,215.885 119.315 L 215.885 113.802 219.336 113.791 C 226.110 113.768,228.186 111.957,228.341 105.932 L 228.427 102.604 233.866 102.604 C 239.815 102.604,240.342 102.460,239.583 101.042 C 239.318 100.546,239.038 100.521,233.845 100.521 L 228.385 100.521 228.385 95.833 L 228.385 91.146 233.705 91.146 C 239.219 91.146,239.844 91.028,239.844 89.987 C 239.844 89.140,239.105 89.016,233.799 88.974 L 228.516 88.932 228.444 84.440 L 228.373 79.948 233.677 79.948 C 239.190 79.948,239.844 79.817,239.844 78.709 C 239.844 77.727,239.159 77.604,233.699 77.604 L 228.373 77.604 228.445 72.982 L 228.516 68.359 233.845 68.280 C 239.276 68.199,239.844 68.094,239.844 67.165 C 239.844 66.288,238.978 66.146,233.624 66.146 L 228.411 66.146 228.431 63.477 C 228.478 57.259,226.304 55.170,219.596 54.990 L 215.885 54.890 215.885 49.372 C 215.885 43.541,215.824 43.229,214.671 43.229 C 213.670 43.229,213.542 43.952,213.542 49.592 L 213.542 54.948 208.854 54.948 L 204.167 54.948 204.167 49.381 C 204.167 43.391,204.100 43.092,202.814 43.274 L 202.214 43.359 202.143 49.154 L 202.073 54.948 197.266 54.948 L 192.458 54.948 192.388 49.154 L 192.318 43.359 191.717 43.274 C 190.431 43.092,190.365 43.391,190.365 49.381 L 190.365 54.948 185.677 54.948 L 180.990 54.948 180.990 49.401 C 180.990 43.579,180.923 43.229,179.818 43.229 C 179.517 43.229,179.130 43.370,178.958 43.542 M299.911 47.331 C 299.449 48.875,290.859 76.049,290.687 76.507 C 290.589 76.770,291.120 76.826,293.124 76.768 L 295.686 76.693 296.867 72.850 L 298.047 69.007 303.349 69.074 L 308.651 69.141 309.869 72.917 L 311.087 76.693 313.616 76.767 C 315.325 76.818,316.146 76.749,316.146 76.556 C 316.146 76.398,315.628 74.666,314.994 72.705 C 314.361 70.745,312.538 65.039,310.943 60.026 C 309.348 55.013,307.688 49.827,307.255 48.503 L 306.467 46.094 303.374 46.094 L 300.281 46.094 299.911 47.331 M319.594 61.377 L 319.661 76.693 322.201 76.767 L 324.740 76.842 324.740 70.872 L 324.740 64.902 328.451 64.786 C 335.956 64.552,339.453 61.592,339.453 55.474 C 339.453 48.499,336.254 46.285,325.974 46.147 L 319.527 46.061 319.594 61.377 M344.271 61.458 L 344.271 76.823 347.005 76.823 L 349.740 76.823 349.740 61.458 L 349.740 46.094 347.005 46.094 L 344.271 46.094 344.271 61.458 M331.120 50.626 C 334.167 51.922,335.329 55.642,333.508 58.269 C 332.326 59.975,331.549 60.268,327.930 60.376 L 324.740 60.470 324.740 55.201 L 324.740 49.932 327.409 50.057 C 329.083 50.136,330.466 50.348,331.120 50.626 M305.212 58.100 C 306.211 61.451,307.029 64.280,307.030 64.386 C 307.032 64.619,299.919 64.436,299.757 64.199 C 299.642 64.031,303.197 51.822,303.326 51.942 C 303.364 51.978,304.213 54.749,305.212 58.100 M223.568 57.523 C 224.828 58.105,225.622 58.930,226.159 60.217 C 226.513 61.063,226.563 64.036,226.563 84.442 L 226.563 107.702 225.977 108.849 C 225.654 109.480,224.940 110.354,224.390 110.792 L 223.389 111.589 197.958 111.666 C 168.676 111.755,170.028 111.878,168.723 109.005 C 168.150 107.743,167.945 61.722,168.506 60.238 C 168.900 59.196,170.012 58.086,171.224 57.525 C 172.840 56.777,221.947 56.776,223.568 57.523 M65.421 66.645 C 67.147 68.577,65.778 71.615,63.181 71.615 C 60.980 71.615,59.576 69.477,60.428 67.421 C 61.232 65.481,63.997 65.051,65.421 66.645 M62.153 67.986 C 61.389 69.076,62.472 70.386,63.682 69.834 C 64.972 69.247,64.674 67.448,63.287 67.448 C 62.817 67.448,62.387 67.652,62.153 67.986 M187.799 69.336 C 187.655 69.801,185.346 76.921,182.670 85.156 C 179.993 93.392,177.787 100.306,177.768 100.521 C 177.712 101.166,183.272 101.237,183.529 100.595 C 183.632 100.339,184.190 98.607,184.769 96.745 L 185.823 93.359 191.570 93.289 L 197.316 93.219 198.303 96.284 C 198.845 97.970,199.396 99.730,199.527 100.195 L 199.764 101.042 202.877 101.042 C 205.751 101.042,205.990 101.004,205.990 100.552 C 205.990 100.282,203.642 92.958,200.772 84.275 L 195.555 68.490 191.808 68.490 L 188.061 68.490 187.799 69.336 M209.218 68.807 C 209.083 69.000,209.039 75.817,209.115 85.026 L 209.245 100.911 212.240 100.911 L 215.234 100.911 215.234 84.766 L 215.234 68.620 212.343 68.547 C 210.219 68.493,209.390 68.562,209.218 68.807 M191.927 74.881 C 191.927 75.216,195.288 86.453,195.743 87.639 C 195.868 87.965,195.268 88.021,191.667 88.021 C 187.752 88.021,187.457 87.988,187.620 87.565 C 188.113 86.290,191.406 75.280,191.406 74.910 C 191.406 74.673,191.523 74.479,191.667 74.479 C 191.810 74.479,191.927 74.660,191.927 74.881 M58.594 76.048 C 58.594 78.520,65.638 84.620,70.497 86.355 L 72.266 86.986 66.667 86.878 C 56.795 86.687,50.586 84.931,45.052 80.767 L 43.099 79.297 46.115 79.132 C 50.331 78.902,55.691 77.531,57.600 76.194 C 58.281 75.716,58.594 75.671,58.594 76.048 M114.641 78.270 C 113.414 79.130,114.161 81.250,115.692 81.250 C 116.562 81.250,117.525 80.089,117.291 79.321 C 116.871 77.937,115.751 77.493,114.641 78.270 M122.181 78.467 C 121.472 79.221,121.461 79.945,122.146 80.680 C 123.155 81.764,125.000 81.038,125.000 79.557 C 125.000 78.059,123.214 77.368,122.181 78.467 M130.266 78.270 C 129.008 79.152,129.820 81.250,131.419 81.250 C 131.999 81.250,133.073 80.150,133.073 79.557 C 133.073 78.299,131.352 77.510,130.266 78.270 M138.021 78.385 C 136.997 79.410,137.737 81.250,139.174 81.250 C 139.808 81.250,140.885 80.185,140.885 79.557 C 140.885 78.226,138.966 77.440,138.021 78.385 M103.451 102.291 C 103.200 102.548,102.292 103.666,101.432 104.775 C 100.407 106.098,99.735 106.749,99.479 106.666 C 99.264 106.597,97.789 106.006,96.200 105.353 C 81.079 99.141,64.629 104.013,55.883 117.292 C 48.422 128.623,48.393 144.823,55.837 143.633 C 58.757 143.166,59.499 141.753,59.530 136.600 C 59.632 119.217,74.891 108.081,91.471 113.288 C 94.021 114.089,94.002 114.040,92.483 115.918 C 89.956 119.041,90.018 119.073,100.506 120.042 C 111.666 121.073,110.917 122.052,107.718 110.613 C 105.274 101.874,104.785 100.921,103.451 102.291 M109.873 127.842 C 107.189 128.701,106.652 129.882,106.612 135.026 C 106.478 151.957,90.987 163.065,74.881 157.778 C 72.871 157.118,72.894 157.195,74.219 155.531 C 76.642 152.488,76.510 152.423,65.682 151.315 C 54.504 150.172,55.358 149.126,58.621 159.964 C 61.839 170.654,61.708 170.516,64.984 166.654 C 66.084 165.359,67.062 164.333,67.158 164.376 C 73.900 167.371,76.882 168.210,81.510 168.414 C 98.362 169.156,112.693 157.456,115.501 140.664 C 116.956 131.960,114.499 126.362,109.873 127.842 M319.159 129.576 C 318.239 130.496,318.972 132.292,320.268 132.292 C 321.013 132.292,321.875 131.406,321.875 130.639 C 321.875 129.384,320.061 128.674,319.159 129.576 M126.823 132.813 C 125.766 133.870,126.445 135.677,127.900 135.677 C 129.379 135.677,130.087 134.172,129.162 132.997 C 128.499 132.153,127.556 132.079,126.823 132.813 M134.896 132.813 C 133.844 133.864,134.519 135.682,135.958 135.673 C 136.734 135.668,137.074 135.452,137.461 134.718 C 138.302 133.120,136.171 131.537,134.896 132.813 M142.708 132.813 C 141.651 133.870,142.331 135.677,143.786 135.677 C 145.334 135.677,146.040 134.037,144.959 132.956 C 144.160 132.157,143.411 132.110,142.708 132.813 M150.579 132.697 C 149.883 133.184,149.787 134.645,150.409 135.268 C 150.975 135.833,152.170 135.780,152.727 135.165 C 154.094 133.654,152.245 131.530,150.579 132.697 M196.373 135.061 C 195.549 136.109,196.254 137.760,197.526 137.760 C 197.754 137.760,198.228 137.473,198.580 137.121 C 198.931 136.770,199.219 136.296,199.219 136.068 C 199.219 134.689,197.222 133.982,196.373 135.061 M319.181 137.455 C 318.578 138.122,318.620 139.495,319.254 139.835 C 321.020 140.780,322.731 138.877,321.354 137.500 C 320.704 136.850,319.747 136.830,319.181 137.455 M196.473 142.827 C 195.509 143.790,196.129 145.573,197.427 145.573 C 198.043 145.573,199.219 144.462,199.219 143.880 C 199.219 143.652,198.931 143.178,198.580 142.827 C 198.228 142.475,197.754 142.188,197.526 142.188 C 197.298 142.188,196.824 142.475,196.473 142.827 M266.646 151.906 C 266.013 152.240,265.143 153.013,264.714 153.623 L 263.932 154.732 263.932 188.151 L 263.932 221.570 264.721 222.692 C 265.155 223.309,266.014 224.168,266.631 224.602 L 267.753 225.391 287.132 225.462 C 297.790 225.502,306.510 225.619,306.509 225.723 C 306.508 225.826,305.706 228.783,304.726 232.292 L 302.945 238.672 299.132 238.744 L 295.319 238.816 295.156 239.463 C 294.783 240.950,293.831 240.885,316.007 240.885 C 335.752 240.885,336.391 240.870,336.829 240.386 C 337.901 239.202,337.086 238.825,333.278 238.745 L 329.847 238.672 327.950 232.161 C 326.906 228.581,326.050 225.622,326.047 225.586 C 326.044 225.550,334.567 225.518,344.987 225.515 C 366.331 225.509,365.055 225.626,366.978 223.493 C 368.563 221.735,368.506 223.140,368.429 187.968 L 368.359 155.585 367.708 154.327 C 367.329 153.594,366.584 152.727,365.925 152.250 L 364.793 151.432 316.295 151.365 L 267.798 151.298 266.646 151.906 M154.648 154.822 C 153.225 155.563,151.915 157.051,151.559 158.333 C 150.966 160.464,151.239 225.226,151.846 226.480 C 152.512 227.856,154.081 229.241,155.432 229.646 C 156.879 230.079,237.913 230.079,239.360 229.646 C 240.666 229.254,242.313 227.834,243.043 226.469 L 243.620 225.391 243.689 192.593 C 243.765 156.555,243.831 158.181,242.197 156.208 C 241.762 155.684,240.901 155.010,240.283 154.711 L 239.158 154.167 197.509 154.179 L 155.859 154.191 154.648 154.822 M210.807 156.582 C 213.958 156.620,203.025 156.678,186.511 156.711 C 153.376 156.777,155.481 156.666,154.417 158.411 C 154.137 158.870,153.910 159.421,153.913 159.635 C 153.916 159.850,154.135 159.548,154.400 158.965 C 155.101 157.421,156.885 156.593,157.585 157.487 C 157.909 157.899,157.900 157.909,157.490 157.588 C 156.998 157.202,156.115 157.383,156.382 157.815 C 156.472 157.961,156.685 158.012,156.854 157.928 C 157.023 157.843,156.945 157.950,156.680 158.166 C 156.416 158.382,156.064 158.527,155.899 158.488 C 155.734 158.450,155.673 158.463,155.764 158.518 C 155.855 158.572,155.843 159.002,155.736 159.473 C 155.591 160.116,155.631 160.330,155.897 160.330 C 156.091 160.330,156.250 160.193,156.250 160.026 C 156.250 159.859,156.421 159.722,156.629 159.722 C 156.838 159.722,156.954 159.810,156.888 159.917 C 156.822 160.024,156.915 160.171,157.095 160.244 C 157.279 160.318,157.195 160.396,156.901 160.422 C 156.464 160.461,156.485 160.499,157.031 160.656 C 157.389 160.759,157.745 160.752,157.821 160.641 C 157.898 160.529,158.117 160.696,158.308 161.013 C 158.536 161.392,158.547 161.486,158.338 161.289 C 158.123 161.086,157.759 161.064,157.214 161.220 C 156.674 161.375,156.348 161.357,156.231 161.167 C 156.116 160.981,155.998 160.973,155.893 161.143 C 155.690 161.472,156.321 161.725,157.014 161.592 C 157.304 161.536,157.620 161.618,157.717 161.775 C 157.823 161.946,157.772 161.985,157.590 161.873 C 157.421 161.768,157.219 161.865,157.132 162.093 C 157.046 162.317,156.805 162.500,156.597 162.500 C 156.370 162.500,156.293 162.370,156.403 162.174 C 156.550 161.914,156.517 161.914,156.236 162.174 C 156.043 162.354,155.352 162.529,154.701 162.564 C 154.049 162.599,173.320 162.688,197.526 162.760 L 241.536 162.893 197.461 162.957 L 153.385 163.021 153.391 161.393 C 153.401 158.662,154.504 156.956,156.529 156.541 C 157.255 156.393,197.680 156.423,210.807 156.582 M239.925 157.357 C 240.395 157.822,240.456 157.922,240.061 157.578 C 239.666 157.234,238.899 156.866,238.356 156.761 L 237.370 156.570 238.220 156.540 C 238.854 156.518,239.287 156.725,239.925 157.357 M156.767 158.861 C 156.769 158.610,156.914 158.683,157.188 159.073 C 157.417 159.401,157.535 159.740,157.448 159.826 C 157.362 159.912,157.292 159.846,157.292 159.679 C 157.292 159.512,157.002 159.375,156.649 159.375 C 156.169 159.375,156.046 159.270,156.164 158.963 C 156.292 158.630,156.365 158.618,156.543 158.897 C 156.720 159.178,156.764 159.171,156.767 158.861 M366.406 188.281 L 366.406 216.927 316.148 216.927 L 265.890 216.927 265.823 188.390 C 265.786 172.694,265.804 159.804,265.864 159.744 C 265.923 159.684,288.570 159.635,316.189 159.635 L 366.406 159.635 366.406 188.281 M160.417 162.397 C 160.417 162.454,159.948 162.500,159.375 162.500 C 158.802 162.500,158.333 162.409,158.333 162.298 C 158.333 162.187,158.802 162.140,159.375 162.195 C 159.948 162.250,160.417 162.341,160.417 162.397 M347.266 164.035 C 342.957 165.130,340.921 169.743,343.057 173.565 L 343.702 174.719 338.882 181.754 L 334.062 188.788 333.264 188.376 C 331.674 187.553,327.394 188.188,326.674 189.353 C 326.406 189.787,326.083 189.577,322.355 186.551 C 319.136 183.937,318.628 183.424,318.681 182.840 C 319.024 179.056,318.603 177.474,316.814 175.825 C 312.481 171.830,306.119 174.738,306.120 180.713 L 306.121 182.950 299.898 187.503 C 296.476 190.008,293.280 192.341,292.797 192.688 L 291.917 193.319 290.815 192.689 C 285.303 189.537,279.036 196.479,282.433 201.974 C 286.398 208.386,296.745 203.652,294.149 196.615 C 293.911 195.970,293.695 195.306,293.668 195.140 C 293.631 194.910,305.243 186.110,306.954 185.071 C 307.135 184.961,307.764 185.260,308.445 185.779 C 310.757 187.544,313.817 187.595,316.149 185.906 L 317.203 185.142 321.101 188.296 C 323.246 190.031,325.000 191.491,325.000 191.541 C 325.000 191.592,324.877 191.957,324.726 192.354 C 323.962 194.363,324.587 197.309,326.120 198.925 C 331.327 204.414,339.932 198.249,336.560 191.446 L 335.797 189.907 340.359 183.247 C 345.809 175.293,345.242 175.930,346.430 176.426 C 350.426 178.096,355.060 174.816,355.018 170.348 C 354.979 166.267,351.055 163.071,347.266 164.035 M241.665 194.598 C 241.664 225.373,241.671 225.181,240.431 226.368 C 238.765 227.964,241.623 227.865,197.329 227.865 L 156.881 227.865 155.734 227.279 C 154.146 226.467,153.565 225.569,153.373 223.626 C 153.218 222.062,153.109 165.629,153.261 165.365 C 153.302 165.293,173.210 165.264,197.501 165.301 L 241.667 165.368 241.665 194.598 M273.355 168.555 C 272.943 168.857,272.917 170.351,272.979 189.583 L 273.047 210.286 316.016 210.286 L 358.984 210.286 359.072 209.670 C 359.119 209.332,359.051 208.946,358.918 208.814 C 358.773 208.669,342.077 208.580,316.839 208.588 L 275.000 208.603 275.000 188.686 C 275.000 169.260,274.988 168.762,274.496 168.499 C 273.869 168.163,273.889 168.162,273.355 168.555 M345.804 173.059 C 346.035 173.353,345.902 173.263,345.508 172.860 C 345.114 172.457,344.795 171.983,344.800 171.806 C 344.804 171.629,344.937 171.719,345.096 172.005 C 345.254 172.292,345.573 172.766,345.804 173.059 M191.198 176.875 C 190.719 177.353,190.826 178.335,191.389 178.637 C 192.442 179.200,232.132 178.989,232.839 178.416 C 233.374 177.983,233.408 177.846,233.134 177.244 L 232.824 176.563 212.167 176.563 C 196.448 176.563,191.436 176.637,191.198 176.875 M310.677 176.904 C 310.677 176.949,310.296 177.250,309.831 177.574 L 308.984 178.163 309.715 177.493 C 310.389 176.875,310.677 176.699,310.677 176.904 M316.132 178.727 C 316.068 178.781,315.673 178.404,315.253 177.889 L 314.491 176.953 315.370 177.791 C 315.854 178.252,316.197 178.673,316.132 178.727 M308.520 181.181 C 308.460 181.577,308.410 181.315,308.408 180.599 C 308.406 179.883,308.455 179.559,308.517 179.879 C 308.578 180.200,308.580 180.785,308.520 181.181 M56.641 181.934 C 44.266 184.581,35.111 197.734,36.692 210.593 C 38.454 224.930,49.114 233.905,64.453 233.966 C 71.144 233.992,73.160 232.713,72.865 228.628 C 72.595 224.894,70.930 223.958,64.556 223.958 C 57.713 223.958,54.628 222.914,51.161 219.424 C 42.025 210.227,46.393 194.719,59.034 191.471 C 61.744 190.775,94.258 190.778,96.973 191.475 C 103.359 193.114,109.635 200.080,109.635 205.529 C 109.635 205.639,108.657 205.729,107.462 205.729 C 103.113 205.729,103.284 206.415,109.222 212.765 C 113.924 217.794,114.320 218.132,115.039 217.737 C 115.936 217.244,125.260 207.642,125.260 207.211 C 125.260 206.129,124.347 205.729,121.880 205.729 C 119.230 205.729,119.534 206.027,119.001 202.906 C 117.404 193.563,109.581 184.949,100.130 182.129 C 97.922 181.471,59.611 181.298,56.641 181.934 M315.370 183.407 L 314.491 184.245 315.253 183.309 C 315.673 182.794,316.068 182.417,316.132 182.471 C 316.197 182.525,315.854 182.946,315.370 183.407 M179.548 185.160 C 178.582 185.457,177.636 186.427,176.634 188.151 C 175.054 190.868,172.813 191.410,170.703 189.583 C 169.146 188.236,167.708 188.242,167.708 189.595 C 167.708 190.128,169.991 192.080,171.210 192.589 C 172.967 193.323,175.165 192.820,177.118 191.238 L 178.255 190.317 177.139 191.361 C 174.610 193.727,171.864 193.782,169.104 191.520 C 168.015 190.628,167.964 190.614,167.208 191.005 C 166.201 191.526,164.877 191.517,164.289 190.985 C 163.196 189.996,161.950 191.133,162.648 192.482 C 163.234 193.615,163.039 194.541,162.109 195.052 C 160.898 195.717,160.894 196.774,162.099 197.278 C 163.915 198.037,164.547 200.000,163.411 201.350 C 162.528 202.400,162.587 202.784,163.802 203.906 C 165.117 205.120,165.228 207.552,163.969 207.552 C 163.784 207.552,163.392 207.816,163.099 208.138 C 159.205 212.413,166.068 219.439,170.286 215.495 C 172.199 213.705,173.227 213.876,175.003 216.280 C 178.459 220.958,185.802 217.955,184.671 212.325 C 184.168 209.820,184.120 209.896,186.206 209.896 C 189.114 209.896,190.976 208.787,192.092 206.391 C 193.921 202.462,191.369 197.928,187.322 197.918 C 185.517 197.914,185.481 197.827,185.379 193.311 C 185.231 186.716,183.294 184.009,179.548 185.160 M196.148 185.467 C 195.730 185.885,195.749 186.585,196.188 186.949 C 196.859 187.507,232.817 187.219,233.173 186.654 C 233.383 186.321,233.383 186.075,233.173 185.742 C 232.805 185.159,196.724 184.890,196.148 185.467 M178.776 189.323 C 178.554 189.753,178.313 190.104,178.242 190.104 C 178.170 190.104,178.293 189.753,178.516 189.323 C 178.738 188.893,178.978 188.542,179.050 188.542 C 179.121 188.542,178.998 188.893,178.776 189.323 M334.627 192.788 C 334.623 192.959,334.490 192.865,334.331 192.578 C 334.172 192.292,333.912 191.876,333.753 191.654 C 333.594 191.432,333.727 191.526,334.049 191.864 C 334.372 192.201,334.632 192.617,334.627 192.788 M167.188 191.667 C 166.973 191.806,166.504 191.907,166.146 191.892 C 165.545 191.868,165.555 191.850,166.276 191.667 C 167.402 191.380,167.631 191.380,167.188 191.667 M165.491 192.773 C 165.660 193.955,165.581 195.815,165.365 195.733 C 165.293 195.706,164.857 196.076,164.395 196.555 C 163.672 197.305,163.635 197.401,164.132 197.243 C 164.668 197.074,164.681 197.096,164.321 197.554 C 163.964 198.007,163.968 198.019,164.380 197.696 C 164.626 197.504,164.802 197.252,164.770 197.136 C 164.739 197.021,164.831 196.945,164.974 196.966 C 165.117 196.988,165.218 197.152,165.198 197.331 C 165.178 197.510,165.314 197.656,165.501 197.656 C 165.687 197.656,165.809 197.861,165.772 198.112 C 165.735 198.363,165.892 198.710,166.121 198.885 C 166.394 199.093,166.425 199.205,166.211 199.210 C 166.032 199.215,165.915 199.359,165.951 199.530 C 165.986 199.701,165.664 199.921,165.234 200.020 C 164.747 200.131,165.390 200.210,166.946 200.230 L 169.438 200.260 170.601 199.147 C 172.320 197.499,174.696 196.952,176.432 197.802 C 176.862 198.013,176.979 198.110,176.693 198.019 C 174.393 197.288,171.504 198.066,170.313 199.739 C 169.792 200.471,169.720 200.489,167.051 200.569 L 164.322 200.651 164.322 199.922 C 164.323 199.079,163.704 197.761,163.222 197.578 C 163.011 197.497,163.232 197.162,163.831 196.653 C 165.311 195.397,165.680 193.923,164.968 192.122 C 164.866 191.864,164.906 191.667,165.060 191.667 C 165.210 191.667,165.404 192.165,165.491 192.773 M197.708 194.063 C 197.230 194.541,197.336 195.523,197.900 195.824 C 198.815 196.314,232.046 196.185,232.755 195.688 C 233.391 195.242,233.505 194.547,233.021 194.062 C 232.569 193.611,198.160 193.611,197.708 194.063 M285.237 195.638 C 284.945 195.960,284.577 196.458,284.418 196.745 C 284.260 197.031,284.127 197.128,284.123 196.960 C 284.114 196.638,285.355 195.052,285.615 195.052 C 285.699 195.052,285.529 195.316,285.237 195.638 M284.038 199.020 C 283.976 199.344,283.923 199.141,283.920 198.568 C 283.917 197.995,283.968 197.730,284.033 197.979 C 284.098 198.228,284.101 198.696,284.038 199.020 M178.777 199.260 C 179.275 199.848,179.266 199.847,178.514 199.223 C 177.265 198.186,177.184 198.098,177.737 198.382 C 178.025 198.529,178.493 198.924,178.777 199.260 M175.522 200.000 C 178.110 200.000,178.758 204.850,176.338 206.101 C 173.293 207.676,170.115 204.448,171.810 201.502 C 172.285 200.677,174.094 199.657,174.696 199.874 C 174.887 199.944,175.258 200.000,175.522 200.000 M180.393 203.708 C 180.330 204.032,180.277 203.828,180.274 203.255 C 180.271 202.682,180.322 202.417,180.387 202.666 C 180.452 202.915,180.455 203.384,180.393 203.708 M170.018 206.202 C 171.753 208.639,174.303 209.435,176.823 208.328 C 177.603 207.985,177.822 207.946,177.479 208.211 C 174.521 210.494,169.234 207.864,168.959 203.971 L 168.900 203.125 167.126 203.125 C 165.352 203.125,165.351 203.125,165.191 203.927 C 165.088 204.445,164.960 204.615,164.831 204.407 C 164.255 203.475,165.111 202.888,167.160 202.810 L 169.141 202.734 169.299 204.074 C 169.386 204.811,169.709 205.769,170.018 206.202 M190.544 204.102 C 190.479 204.352,190.425 204.147,190.425 203.646 C 190.425 203.145,190.479 202.939,190.544 203.190 C 190.610 203.441,190.610 203.851,190.544 204.102 M165.338 206.055 C 165.301 206.663,165.410 207.417,165.579 207.730 C 166.011 208.532,165.981 208.663,165.104 209.766 C 163.119 212.264,166.657 215.682,168.954 213.486 C 169.984 212.502,170.843 211.976,171.402 211.985 C 171.591 211.988,171.276 212.206,170.703 212.470 C 170.130 212.733,169.338 213.317,168.943 213.766 C 167.878 214.978,166.448 214.678,164.905 212.920 C 163.846 211.714,163.840 210.924,164.880 209.629 C 165.635 208.690,165.668 208.567,165.320 208.017 C 165.076 207.633,164.980 206.984,165.049 206.185 C 165.182 204.650,165.428 204.539,165.338 206.055 M131.368 206.368 C 130.587 207.149,130.560 207.788,131.269 208.689 C 132.305 210.006,134.640 208.955,134.259 207.344 C 133.892 205.793,132.435 205.301,131.368 206.368 M139.453 206.040 C 137.820 206.967,138.426 209.375,140.292 209.375 C 141.829 209.375,142.480 207.243,141.241 206.269 C 140.463 205.657,140.191 205.622,139.453 206.040 M187.044 207.736 C 186.722 207.798,186.195 207.798,185.872 207.736 C 185.550 207.674,185.814 207.623,186.458 207.623 C 187.103 207.623,187.367 207.674,187.044 207.736 M174.603 212.526 C 174.743 212.662,174.450 212.637,173.952 212.468 C 172.786 212.074,172.560 211.852,173.568 212.091 C 173.997 212.193,174.463 212.389,174.603 212.526 M176.891 214.714 C 177.529 215.642,177.255 215.392,175.890 213.802 C 175.222 213.024,175.131 212.849,175.619 213.281 C 176.023 213.639,176.595 214.284,176.891 214.714 M182.131 214.958 C 181.985 215.339,180.911 216.146,180.550 216.146 C 180.442 216.146,180.643 215.948,180.997 215.706 C 181.351 215.464,181.734 215.112,181.849 214.925 C 182.128 214.468,182.311 214.490,182.131 214.958 M83.423 220.087 C 73.097 229.187,73.586 227.822,78.958 232.570 C 88.031 240.589,89.095 241.438,89.957 241.354 L 90.755 241.276 90.827 237.500 L 90.899 233.724 94.603 233.695 C 101.410 233.642,106.866 231.577,111.596 227.264 L 112.891 226.083 111.719 224.870 C 108.636 221.680,105.269 220.103,103.850 221.185 C 101.474 222.997,97.988 223.947,93.685 223.954 L 90.885 223.958 90.885 219.714 C 90.885 213.341,91.089 213.331,83.423 220.087 " stroke="none" fill="#18486a" fill-rule="evenodd"></path><path id="path1" d="M0.000 133.333 L 0.000 266.667 200.000 266.667 L 400.000 266.667 400.000 133.333 L 400.000 0.000 200.000 0.000 L 0.000 0.000 0.000 133.333 M89.418 19.550 C 90.089 20.078,90.104 20.156,90.105 23.131 C 90.105 24.803,90.182 29.593,90.276 33.774 L 90.448 41.377 95.608 41.457 C 102.420 41.562,101.909 41.078,102.083 47.598 L 102.214 52.474 103.516 52.460 C 104.730 52.448,108.034 51.588,108.805 51.084 C 109.081 50.904,109.046 50.561,108.620 49.296 C 106.831 43.986,107.708 37.774,110.742 34.264 L 111.612 33.258 112.568 33.712 C 114.744 34.744,118.273 39.343,119.138 42.274 L 119.441 43.300 123.327 43.336 C 128.496 43.385,132.270 44.805,131.880 46.555 C 130.801 51.396,125.076 55.186,118.815 55.204 C 117.673 55.207,117.188 55.307,117.188 55.540 C 117.188 55.722,116.830 56.799,116.394 57.933 C 107.891 80.014,85.422 92.291,60.098 88.693 C 42.564 86.201,33.308 75.681,33.223 58.145 L 33.203 54.181 33.926 53.458 C 34.638 52.747,34.696 52.736,37.442 52.802 L 40.234 52.869 40.234 47.817 C 40.234 41.125,39.649 41.698,46.585 41.607 L 51.953 41.536 52.024 36.408 L 52.094 31.279 52.775 30.744 C 53.439 30.222,53.745 30.208,65.009 30.208 L 76.563 30.208 76.563 25.149 L 76.563 20.090 77.249 19.550 C 78.304 18.720,88.363 18.720,89.418 19.550 M372.336 24.188 C 374.204 25.032,376.172 27.207,376.695 29.005 C 377.042 30.200,377.083 34.535,377.022 64.077 L 376.953 97.786 376.227 99.266 C 375.439 100.870,374.308 102.007,372.584 102.928 L 371.484 103.516 351.742 103.587 C 333.188 103.654,332.008 103.686,332.134 104.108 C 332.509 105.368,334.745 113.066,335.630 116.146 L 336.640 119.661 340.892 119.733 C 345.445 119.810,345.913 119.938,345.781 121.071 L 345.703 121.745 320.443 121.745 L 295.182 121.745 295.096 120.992 C 294.969 119.879,295.294 119.800,300.015 119.796 L 304.326 119.792 304.764 118.034 C 305.005 117.067,306.005 113.434,306.986 109.961 L 308.770 103.646 289.458 103.646 C 267.244 103.646,268.585 103.779,266.127 101.321 C 263.599 98.794,263.802 102.095,263.805 63.430 L 263.807 29.557 264.426 28.229 C 265.472 25.981,267.548 24.297,269.983 23.719 C 270.544 23.586,292.347 23.504,320.964 23.527 L 370.964 23.568 372.336 24.188 M265.885 61.979 L 265.885 88.802 320.443 88.802 L 375.000 88.802 375.000 61.979 L 375.000 35.156 320.443 35.156 L 265.885 35.156 265.885 61.979 M180.580 43.378 C 180.927 43.725,180.990 44.642,180.990 49.368 L 180.990 54.948 185.677 54.948 L 190.365 54.948 190.365 49.228 C 190.365 43.774,190.389 43.495,190.885 43.229 C 192.449 42.392,192.782 43.720,192.662 50.326 L 192.578 54.949 197.201 54.948 L 201.823 54.948 201.823 49.631 C 201.823 43.981,201.868 43.623,202.635 43.213 C 204.030 42.466,204.167 43.003,204.167 49.228 L 204.167 54.948 208.854 54.948 L 213.542 54.948 213.542 49.435 C 213.542 43.791,213.685 42.969,214.668 42.969 C 215.760 42.969,215.885 43.627,215.885 49.365 L 215.885 54.900 219.727 54.989 C 226.397 55.144,228.646 57.345,228.646 63.719 L 228.646 66.146 233.932 66.146 C 239.519 66.146,239.844 66.213,239.844 67.361 C 239.844 68.354,239.113 68.490,233.741 68.490 L 228.646 68.490 228.646 73.042 L 228.646 77.594 234.021 77.664 C 239.963 77.742,240.296 77.837,239.640 79.277 L 239.334 79.948 233.990 79.948 L 228.646 79.948 228.646 84.375 L 228.646 88.802 233.741 88.802 C 239.113 88.802,239.844 88.937,239.844 89.931 C 239.844 91.079,239.519 91.146,233.932 91.146 L 228.646 91.146 228.646 95.833 L 228.646 100.521 233.932 100.521 C 239.398 100.521,239.844 100.603,239.844 101.609 C 239.844 102.710,238.907 102.892,233.652 102.811 L 228.705 102.734 228.598 105.729 C 228.378 111.869,226.164 113.798,219.336 113.801 L 215.885 113.802 215.885 119.479 C 215.885 125.339,215.810 125.781,214.810 125.781 C 213.640 125.781,213.542 125.286,213.542 119.382 L 213.542 113.802 208.854 113.802 L 204.167 113.802 204.167 119.479 C 204.167 125.260,204.083 125.781,203.159 125.781 C 201.935 125.781,201.823 125.243,201.823 119.355 L 201.823 113.790 197.263 113.861 L 192.703 113.932 192.665 119.205 C 192.626 124.613,192.469 125.565,191.583 125.735 C 190.450 125.953,190.365 125.514,190.365 119.499 L 190.365 113.802 185.677 113.802 L 180.990 113.802 180.990 119.288 C 180.990 125.063,180.865 125.781,179.861 125.781 C 178.704 125.781,178.646 125.478,178.646 119.479 L 178.646 113.802 175.065 113.796 C 168.541 113.786,166.441 111.924,166.159 105.902 L 166.016 102.821 160.938 102.850 C 155.561 102.882,154.688 102.707,154.688 101.600 C 154.688 100.601,155.137 100.521,160.729 100.521 L 166.146 100.521 166.146 95.833 L 166.146 91.146 160.672 91.146 L 155.197 91.146 154.901 90.496 C 154.217 88.996,154.897 88.802,160.848 88.802 L 166.146 88.802 166.146 84.375 L 166.146 79.948 160.893 79.948 C 155.525 79.948,154.688 79.796,154.688 78.821 C 154.688 77.738,155.364 77.604,160.848 77.604 L 166.146 77.604 166.146 73.047 L 166.146 68.490 160.893 68.490 C 155.446 68.490,154.688 68.344,154.688 67.296 C 154.688 66.265,155.321 66.146,160.826 66.146 L 166.146 66.146 166.166 63.346 C 166.209 57.204,168.629 54.948,175.172 54.948 L 178.646 54.948 178.646 49.435 C 178.646 43.136,179.056 41.853,180.580 43.378 M309.697 55.859 C 313.781 68.636,316.169 76.058,316.330 76.479 C 316.434 76.750,315.882 76.823,313.712 76.823 L 310.962 76.823 310.724 75.977 C 310.594 75.511,310.043 73.751,309.501 72.065 L 308.514 69.000 303.316 69.070 L 298.118 69.141 296.933 72.982 L 295.749 76.823 293.187 76.823 C 291.778 76.823,290.625 76.738,290.625 76.633 C 290.625 76.529,291.459 73.805,292.478 70.579 C 297.040 56.137,300.022 46.719,300.132 46.411 C 300.221 46.159,301.028 46.096,303.434 46.151 L 306.618 46.224 309.697 55.859 M333.551 46.641 C 340.372 48.945,341.799 58.506,335.984 62.941 C 334.353 64.185,332.021 64.808,328.238 65.010 L 325.000 65.184 325.000 71.003 L 325.000 76.823 322.266 76.823 L 319.531 76.823 319.531 61.458 L 319.531 46.094 325.731 46.094 C 331.343 46.094,332.084 46.146,333.551 46.641 M349.740 61.458 L 349.740 76.823 347.005 76.823 L 344.271 76.823 344.271 61.458 L 344.271 46.094 347.005 46.094 L 349.740 46.094 349.740 61.458 M324.946 55.371 L 325.022 60.481 327.941 60.365 C 332.823 60.170,334.933 58.128,334.127 54.373 C 333.495 51.423,331.624 50.267,327.474 50.263 L 324.870 50.260 324.946 55.371 M301.482 58.124 C 300.506 61.421,299.758 64.167,299.818 64.228 C 299.879 64.289,301.506 64.305,303.435 64.265 L 306.941 64.193 305.213 58.464 C 304.262 55.313,303.433 52.598,303.370 52.432 C 303.307 52.266,302.457 54.828,301.482 58.124 M289.044 55.374 C 290.031 56.629,289.702 57.437,287.500 59.162 C 286.855 59.667,285.314 60.902,284.074 61.907 L 281.820 63.733 285.116 66.345 C 289.761 70.025,290.269 70.894,288.530 72.186 C 287.579 72.893,287.249 72.711,282.003 68.596 C 275.462 63.464,275.488 64.054,281.596 59.159 C 287.951 54.065,287.996 54.042,289.044 55.374 M358.628 55.534 C 361.281 57.458,367.650 62.753,367.809 63.168 C 368.152 64.061,367.588 64.651,362.725 68.490 C 357.298 72.775,356.491 73.143,355.582 71.755 C 354.735 70.462,355.200 69.794,359.133 66.652 C 361.128 65.058,362.760 63.709,362.760 63.655 C 362.760 63.600,361.208 62.310,359.310 60.788 C 355.014 57.343,354.643 56.778,355.748 55.374 C 356.462 54.466,357.213 54.508,358.628 55.534 M171.776 57.349 C 170.488 57.694,168.866 59.305,168.508 60.595 C 167.954 62.589,168.151 107.484,168.719 108.735 C 170.130 111.842,168.917 111.716,197.396 111.716 C 223.348 111.716,223.300 111.718,224.767 110.484 C 226.371 109.134,226.302 110.315,226.302 84.183 L 226.302 60.277 225.660 59.332 C 225.306 58.812,224.574 58.111,224.032 57.774 L 223.047 57.161 197.917 57.120 C 181.226 57.093,172.447 57.170,171.776 57.349 M62.080 65.880 C 60.620 66.470,59.872 68.463,60.564 69.921 C 61.890 72.716,66.146 71.724,66.146 68.620 C 66.146 66.623,63.932 65.132,62.080 65.880 M65.225 66.932 C 66.005 67.712,65.954 69.538,65.128 70.418 C 63.437 72.217,60.625 71.071,60.625 68.582 C 60.625 66.217,63.484 65.191,65.225 66.932 M62.144 67.467 C 60.879 68.462,61.542 70.378,63.151 70.378 C 64.654 70.378,65.397 68.522,64.323 67.448 C 63.657 66.782,63.007 66.788,62.144 67.467 M64.107 67.618 C 65.032 68.455,64.448 70.052,63.218 70.052 C 61.902 70.052,61.311 68.637,62.240 67.708 C 62.873 67.075,63.474 67.046,64.107 67.618 M195.662 68.685 C 196.151 69.485,206.214 100.661,206.039 100.836 C 205.916 100.959,204.438 101.026,202.754 100.985 L 199.693 100.911 198.479 97.075 L 197.266 93.239 191.626 93.234 L 185.986 93.229 185.033 96.289 C 184.508 97.972,183.947 99.730,183.784 100.195 L 183.489 101.042 180.547 101.042 C 178.453 101.042,177.604 100.953,177.604 100.733 C 177.604 100.564,178.299 98.308,179.149 95.720 C 179.999 93.133,182.289 86.094,184.238 80.078 C 186.187 74.063,187.832 68.994,187.893 68.815 C 188.017 68.452,195.443 68.327,195.662 68.685 M215.222 68.815 C 215.405 69.406,215.655 100.140,215.480 100.596 C 215.233 101.239,209.258 101.271,209.012 100.630 C 208.796 100.065,208.811 68.880,209.028 68.663 C 209.366 68.325,215.113 68.466,215.222 68.815 M191.406 75.330 C 191.406 75.511,190.586 78.326,189.583 81.585 C 188.581 84.844,187.760 87.567,187.760 87.636 C 187.760 87.704,189.527 87.760,191.686 87.760 C 194.807 87.760,195.594 87.690,195.527 87.416 C 194.430 82.934,191.406 74.066,191.406 75.330 M56.120 76.953 C 53.846 78.035,50.516 78.833,46.566 79.242 L 43.523 79.557 45.134 80.750 C 50.847 84.982,58.502 86.988,68.880 86.973 L 72.005 86.968 70.293 86.364 C 65.663 84.729,60.830 80.772,59.037 77.148 C 58.391 75.842,58.448 75.846,56.120 76.953 M61.411 80.778 C 63.427 82.915,65.040 84.132,67.831 85.620 L 69.922 86.734 66.146 86.573 C 56.863 86.177,50.187 84.262,45.436 80.634 L 44.267 79.742 46.418 79.568 C 50.558 79.232,54.781 78.171,57.292 76.836 L 58.203 76.351 58.967 77.675 C 59.388 78.403,60.487 79.800,61.411 80.778 M116.927 78.385 C 117.986 79.445,117.277 81.253,115.806 81.246 C 114.828 81.241,114.507 81.061,114.101 80.291 C 113.213 78.603,115.561 77.020,116.927 78.385 M124.602 78.377 C 125.634 79.518,124.839 81.250,123.282 81.250 C 122.346 81.250,121.615 80.507,121.615 79.557 C 121.615 78.035,123.587 77.256,124.602 78.377 M132.552 78.385 C 133.625 79.458,132.822 81.250,131.269 81.250 C 130.505 81.250,129.427 80.259,129.427 79.557 C 129.427 78.181,131.551 77.385,132.552 78.385 M140.480 78.443 C 141.340 79.671,140.655 81.250,139.264 81.250 C 137.707 81.250,136.898 79.483,137.931 78.341 C 138.550 77.657,139.969 77.714,140.480 78.443 M105.055 102.164 C 105.647 102.597,110.247 118.849,110.028 119.735 C 109.745 120.886,109.169 120.916,101.285 120.199 C 91.794 119.335,91.713 119.323,91.377 118.695 C 90.968 117.931,91.253 117.206,92.568 115.666 C 93.218 114.904,93.750 114.236,93.750 114.183 C 93.750 114.129,92.783 113.780,91.602 113.406 C 74.978 108.154,59.650 119.253,59.631 136.557 C 59.625 141.913,58.519 143.733,55.261 143.746 C 49.875 143.766,48.501 133.676,52.514 123.582 C 59.690 105.536,79.110 97.827,97.472 105.736 L 99.762 106.722 101.733 104.272 C 103.704 101.821,104.176 101.522,105.055 102.164 M87.500 121.918 C 97.633 125.049,100.778 138.026,93.236 145.583 C 84.127 154.710,68.732 148.268,68.753 135.339 C 68.769 125.807,78.210 119.048,87.500 121.918 M112.700 128.007 C 116.123 129.438,117.026 135.069,115.119 143.099 C 110.439 162.804,88.775 173.966,70.703 165.984 C 69.557 165.478,68.252 164.901,67.802 164.702 L 66.983 164.339 65.377 166.281 C 61.725 170.696,61.798 170.761,58.621 160.264 C 56.174 152.180,55.992 151.319,56.620 150.799 C 57.158 150.352,57.180 150.353,66.368 151.308 C 76.637 152.376,76.823 152.479,74.209 155.643 C 73.035 157.064,73.039 157.075,75.130 157.771 C 90.852 163.003,106.536 151.596,106.526 134.937 C 106.522 128.858,108.750 126.357,112.700 128.007 M87.645 130.534 C 86.488 131.715,84.366 133.963,82.930 135.529 L 80.317 138.376 79.807 137.845 C 77.201 135.129,75.930 134.487,75.000 135.417 C 74.064 136.353,74.339 136.913,77.133 139.751 C 80.859 143.537,80.206 143.704,85.828 137.525 C 92.627 130.050,92.642 130.027,91.241 128.925 C 90.189 128.098,89.904 128.225,87.645 130.534 M320.916 129.206 C 322.496 130.037,322.033 132.292,320.282 132.292 C 318.716 132.292,318.026 130.648,319.129 129.545 C 319.848 128.826,320.103 128.778,320.916 129.206 M129.167 132.813 C 130.134 133.780,129.705 135.268,128.317 135.761 C 127.668 135.991,126.671 135.472,126.331 134.725 C 125.530 132.966,127.794 131.439,129.167 132.813 M137.240 132.813 C 138.566 134.139,137.016 136.418,135.314 135.642 C 134.579 135.307,134.062 134.307,134.291 133.662 C 134.784 132.274,136.272 131.845,137.240 132.813 M145.052 132.813 C 146.008 133.769,145.476 135.395,144.074 135.803 C 143.231 136.048,141.815 134.626,142.070 133.791 C 142.525 132.299,144.041 131.802,145.052 132.813 M152.783 132.858 C 153.948 133.953,153.187 135.764,151.563 135.764 C 149.973 135.764,149.277 134.252,150.279 132.978 C 150.946 132.130,151.956 132.081,152.783 132.858 M198.698 134.896 C 200.211 136.409,197.996 138.659,196.436 137.194 C 195.337 136.161,196.027 134.375,197.526 134.375 C 197.884 134.375,198.411 134.609,198.698 134.896 M321.399 137.410 C 322.378 138.297,321.494 140.365,320.135 140.365 C 319.584 140.365,318.490 139.161,318.490 138.554 C 318.490 137.257,320.400 136.506,321.399 137.410 M198.616 142.754 C 199.715 143.787,199.025 145.573,197.526 145.573 C 197.168 145.573,196.641 145.339,196.354 145.052 C 194.795 143.493,197.008 141.243,198.616 142.754 M365.274 151.750 C 366.602 152.460,367.797 153.868,368.192 155.188 C 368.408 155.908,368.490 165.072,368.490 188.640 L 368.490 221.099 367.939 222.270 C 367.337 223.551,366.219 224.624,364.917 225.170 C 364.240 225.453,360.434 225.521,345.094 225.521 L 326.109 225.521 327.979 231.966 L 329.849 238.411 333.294 238.542 C 336.842 238.676,337.225 238.804,337.236 239.857 C 337.246 240.890,337.333 240.885,316.146 240.885 C 294.562 240.885,295.052 240.913,295.052 239.714 C 295.052 238.666,295.499 238.542,299.279 238.542 C 301.931 238.542,302.908 238.456,302.985 238.216 C 303.043 238.037,303.807 235.313,304.684 232.161 C 305.561 229.010,306.338 226.229,306.410 225.981 C 306.535 225.557,305.398 225.526,287.170 225.461 L 267.797 225.391 266.544 224.609 C 265.671 224.066,265.043 223.392,264.481 222.396 L 263.672 220.964 263.591 188.932 C 263.534 166.495,263.594 156.507,263.793 155.584 C 264.249 153.473,265.901 151.823,268.099 151.284 C 268.529 151.178,290.326 151.110,316.536 151.132 L 364.193 151.172 365.274 151.750 M240.271 154.613 C 241.686 155.370,243.093 157.041,243.468 158.409 C 243.689 159.217,243.749 168.212,243.694 192.599 L 243.620 225.692 242.832 226.967 C 242.343 227.757,241.559 228.541,240.769 229.030 L 239.494 229.818 197.684 229.885 L 155.874 229.953 154.547 229.303 C 152.999 228.546,151.732 226.957,151.307 225.238 C 150.739 222.945,151.072 158.913,151.657 157.813 C 152.593 156.052,154.193 154.698,155.988 154.148 C 156.347 154.038,175.215 153.968,197.917 153.992 L 239.193 154.036 240.271 154.613 M265.885 188.281 L 265.885 216.667 316.016 216.667 L 366.146 216.667 366.146 188.281 L 366.146 159.896 316.016 159.896 L 265.885 159.896 265.885 188.281 M350.765 164.237 C 356.344 166.038,356.590 174.185,351.134 176.465 C 350.019 176.931,347.360 176.924,346.231 176.452 L 345.343 176.081 340.629 182.979 L 335.916 189.877 336.610 191.297 C 338.358 194.869,337.169 198.711,333.785 200.426 C 329.033 202.834,323.070 198.185,324.464 193.159 C 324.632 192.553,324.792 191.924,324.819 191.761 C 324.847 191.598,323.176 190.086,321.107 188.401 L 317.343 185.337 316.549 185.807 C 314.557 186.985,314.158 187.109,312.370 187.109 C 310.401 187.109,309.256 186.696,308.002 185.533 L 307.285 184.869 300.518 189.851 C 296.795 192.591,293.750 194.927,293.750 195.041 C 293.750 195.155,293.926 195.670,294.141 196.184 C 296.890 202.763,287.956 208.263,283.092 202.985 C 278.186 197.663,284.457 189.327,290.857 192.663 L 291.969 193.243 295.268 190.813 C 297.083 189.476,300.267 187.137,302.344 185.615 L 306.120 182.848 306.030 181.235 C 305.675 174.873,312.631 171.526,317.042 175.937 C 318.867 177.762,319.206 179.198,318.689 182.919 C 318.638 183.281,319.652 184.254,322.431 186.512 L 326.243 189.608 327.215 188.948 C 328.980 187.750,331.015 187.468,332.939 188.153 C 334.228 188.612,333.612 189.297,339.099 181.302 C 343.068 175.519,343.645 174.555,343.341 174.209 C 339.313 169.629,344.769 162.300,350.765 164.237 M153.447 195.247 L 153.516 225.130 154.096 225.944 C 155.371 227.731,152.067 227.604,197.439 227.604 C 243.312 227.604,239.466 227.766,240.820 225.781 L 241.406 224.923 241.406 195.144 L 241.406 165.365 197.393 165.365 L 153.379 165.365 153.447 195.247 M274.688 168.542 C 274.925 168.779,275.000 173.588,275.000 188.593 L 275.000 208.332 316.830 208.398 L 358.660 208.464 359.037 209.030 C 359.376 209.541,359.359 209.651,358.873 210.137 L 358.333 210.677 315.904 210.677 C 277.679 210.677,273.434 210.637,273.065 210.268 C 272.700 209.903,272.656 207.656,272.656 189.453 C 272.656 171.250,272.700 169.003,273.065 168.638 C 273.553 168.151,274.255 168.109,274.688 168.542 M233.021 176.875 C 233.499 177.353,233.393 178.335,232.830 178.637 C 232.495 178.816,225.473 178.906,211.872 178.906 L 191.418 178.906 191.003 178.273 C 190.680 177.780,190.652 177.520,190.876 177.101 C 191.226 176.447,232.372 176.226,233.021 176.875 M99.740 181.987 C 109.839 184.628,119.481 195.974,119.529 205.273 C 119.531 205.675,119.823 205.729,121.987 205.729 C 124.630 205.729,125.260 205.995,125.260 207.113 C 125.260 207.785,115.223 217.969,114.561 217.969 C 114.147 217.969,112.214 216.065,107.073 210.597 C 103.359 206.647,103.421 205.729,107.405 205.729 C 109.682 205.729,109.714 205.674,108.959 203.107 C 107.231 197.232,102.645 192.919,96.693 191.570 C 93.887 190.935,62.117 190.933,59.296 191.568 C 46.840 194.374,42.200 209.327,50.760 219.077 C 53.719 222.447,57.356 223.721,64.625 223.932 L 70.005 224.089 71.005 224.887 C 74.355 227.559,73.315 232.762,69.209 233.872 C 67.114 234.438,58.899 234.033,55.993 233.220 C 36.493 227.766,29.949 204.007,43.906 189.341 C 48.198 184.830,53.019 182.283,58.717 181.515 C 62.740 180.973,97.386 181.371,99.740 181.987 M183.347 185.872 C 185.004 187.437,185.503 189.201,185.527 193.591 C 185.550 197.700,185.346 197.354,188.133 198.018 C 195.564 199.788,193.369 211.174,185.815 210.041 C 184.475 209.840,184.306 210.160,184.711 212.138 C 185.920 218.040,178.644 221.122,174.952 216.271 C 173.209 213.981,172.157 213.791,170.462 215.463 C 169.207 216.700,168.090 217.075,166.780 216.699 C 161.946 215.313,160.051 209.723,163.687 207.578 C 164.499 207.099,164.583 206.938,164.583 205.868 C 164.583 204.708,164.464 204.502,163.170 203.440 C 162.617 202.987,162.663 202.092,163.281 201.302 C 164.316 199.979,163.879 198.384,162.229 197.466 C 160.916 196.735,160.861 195.754,162.092 195.028 C 163.157 194.399,163.295 193.644,162.570 192.417 C 161.795 191.104,163.197 189.997,164.334 191.026 C 164.849 191.491,166.050 191.415,167.319 190.837 C 167.829 190.605,167.903 190.422,167.784 189.688 C 167.533 188.139,169.169 187.916,170.445 189.325 C 172.418 191.506,174.774 190.956,176.699 187.866 C 178.643 184.748,181.308 183.948,183.347 185.872 M233.021 185.469 C 233.505 185.953,233.391 186.649,232.755 187.095 C 232.245 187.452,230.084 187.500,214.583 187.500 C 199.082 187.500,196.922 187.452,196.412 187.095 C 195.775 186.649,195.661 185.953,196.146 185.469 C 196.598 185.017,232.569 185.017,233.021 185.469 M233.021 194.062 C 233.453 194.495,233.411 195.197,232.924 195.685 C 232.560 196.048,230.596 196.094,215.222 196.094 L 197.929 196.094 197.514 195.460 C 197.191 194.967,197.162 194.707,197.386 194.288 C 197.736 193.635,232.374 193.415,233.021 194.062 M172.521 200.865 C 170.252 203.133,171.856 206.740,174.991 206.420 C 178.104 206.102,178.990 201.745,176.209 200.426 C 174.724 199.721,173.521 199.865,172.521 200.865 M133.689 206.269 C 135.007 207.305,134.216 209.375,132.503 209.375 C 130.945 209.375,130.173 207.466,131.260 206.299 C 131.927 205.583,132.803 205.572,133.689 206.269 M141.357 206.260 C 142.562 207.383,141.831 209.375,140.213 209.375 C 138.552 209.375,137.759 207.530,138.920 206.368 C 139.699 205.590,140.595 205.550,141.357 206.260 M90.473 215.002 C 90.826 215.137,90.885 215.775,90.885 219.417 L 90.885 223.674 91.834 223.852 C 95.291 224.501,101.221 223.083,104.106 220.918 L 104.957 220.279 106.381 220.931 C 108.484 221.893,112.760 225.226,112.760 225.902 C 112.760 226.362,110.604 228.326,108.625 229.667 C 104.464 232.490,100.609 233.644,94.922 233.771 L 91.016 233.858 90.943 237.497 C 90.830 243.196,91.010 243.240,81.931 235.284 C 74.878 229.103,74.492 228.684,74.988 227.757 C 75.166 227.424,77.951 224.822,81.178 221.975 C 89.928 214.251,89.451 214.609,90.473 215.002 " stroke="none" fill="#ffffff" fill-rule="evenodd"></path><path id="path2" d="M287.218 54.901 C 286.276 55.306,277.118 62.860,276.994 63.335 C 276.760 64.230,277.051 64.538,281.485 68.071 C 287.584 72.932,288.139 73.191,289.029 71.597 C 289.729 70.344,289.293 69.753,285.386 66.661 C 282.356 64.263,281.773 63.694,282.066 63.425 C 282.262 63.245,283.923 61.899,285.757 60.433 C 287.592 58.967,289.200 57.485,289.331 57.139 C 289.868 55.728,288.548 54.330,287.218 54.901 M356.323 54.953 C 355.706 55.202,355.371 56.074,355.512 57.065 C 355.572 57.483,356.751 58.605,359.286 60.657 L 362.972 63.642 360.856 65.350 C 355.169 69.938,354.684 70.576,355.881 71.899 C 356.861 72.982,357.332 72.733,363.136 68.058 C 367.729 64.358,367.935 64.131,367.568 63.182 C 367.253 62.369,357.675 54.640,357.060 54.704 C 356.973 54.713,356.641 54.825,356.323 54.953 M79.511 121.752 C 70.113 124.284,65.839 135.118,71.070 143.149 C 77.872 153.592,93.821 151.134,96.881 139.170 C 99.570 128.654,89.897 118.953,79.511 121.752 M91.004 128.547 C 91.623 128.785,92.160 129.984,91.926 130.606 C 91.642 131.358,81.523 142.409,80.953 142.590 C 80.063 142.872,74.479 137.754,74.479 136.656 C 74.479 134.419,76.279 134.331,78.495 136.458 C 80.549 138.431,80.042 138.630,83.981 134.309 C 89.700 128.037,89.692 128.044,91.004 128.547 " stroke="none" fill="#e35738" fill-rule="evenodd"></path><path id="path3" d="M59.180 30.403 C 62.295 30.445,67.393 30.445,70.508 30.403 C 73.623 30.362,71.074 30.328,64.844 30.328 C 58.613 30.328,56.064 30.362,59.180 30.403 M90.205 36.458 C 90.205 38.249,90.246 38.981,90.297 38.086 C 90.348 37.191,90.348 35.726,90.297 34.831 C 90.246 33.936,90.205 34.668,90.205 36.458 M293.424 35.091 C 308.356 35.128,332.790 35.128,347.721 35.091 C 362.653 35.054,350.436 35.024,320.573 35.024 C 290.710 35.024,278.493 35.054,293.424 35.091 M92.760 41.600 C 94.006 41.648,96.116 41.648,97.448 41.600 C 98.780 41.553,97.760 41.514,95.182 41.514 C 92.604 41.514,91.514 41.552,92.760 41.600 M40.202 46.224 C 40.202 47.799,40.245 48.410,40.297 47.582 C 40.349 46.753,40.348 45.464,40.296 44.717 C 40.243 43.970,40.201 44.648,40.202 46.224 M201.932 49.349 C 201.932 52.214,201.970 53.421,202.017 52.032 C 202.064 50.643,202.064 48.299,202.017 46.824 C 201.971 45.348,201.933 46.484,201.932 49.349 M325.854 50.192 C 326.539 50.246,327.594 50.245,328.198 50.190 C 328.802 50.136,328.242 50.092,326.953 50.092 C 325.664 50.093,325.170 50.138,325.854 50.192 M33.154 57.682 C 33.155 58.542,33.204 58.862,33.262 58.394 C 33.320 57.926,33.318 57.223,33.259 56.831 C 33.200 56.440,33.152 56.823,33.154 57.682 M228.463 64.844 C 228.463 65.632,228.512 65.954,228.572 65.560 C 228.632 65.166,228.632 64.521,228.572 64.128 C 228.512 63.734,228.463 64.056,228.463 64.844 M304.887 64.512 C 305.356 64.570,306.059 64.568,306.450 64.509 C 306.841 64.450,306.458 64.402,305.599 64.404 C 304.740 64.405,304.419 64.454,304.887 64.512 M324.851 70.964 C 324.851 74.115,324.888 75.368,324.934 73.749 C 324.980 72.129,324.980 69.551,324.934 68.019 C 324.888 66.488,324.850 67.813,324.851 70.964 M163.471 68.417 C 163.933 68.475,164.753 68.476,165.294 68.419 C 165.834 68.363,165.456 68.316,164.453 68.315 C 163.451 68.313,163.008 68.360,163.471 68.417 M228.501 68.564 C 228.430 68.749,228.405 70.887,228.445 73.317 L 228.517 77.734 228.647 72.981 C 228.774 68.316,228.760 67.890,228.501 68.564 M229.622 68.413 C 229.945 68.475,230.472 68.475,230.794 68.413 C 231.117 68.351,230.853 68.300,230.208 68.300 C 229.564 68.300,229.300 68.351,229.622 68.413 M233.410 68.423 C 234.527 68.472,236.285 68.472,237.317 68.422 C 238.348 68.373,237.435 68.333,235.286 68.333 C 233.138 68.334,232.294 68.374,233.410 68.423 M208.965 76.693 C 208.965 79.844,209.003 81.097,209.049 79.478 C 209.094 77.858,209.094 75.280,209.048 73.749 C 209.002 72.217,208.965 73.542,208.965 76.693 M43.688 79.351 C 44.012 79.413,44.481 79.411,44.730 79.346 C 44.979 79.280,44.714 79.229,44.141 79.232 C 43.568 79.235,43.364 79.289,43.688 79.351 M160.221 79.881 C 161.331 79.930,163.148 79.930,164.258 79.881 C 165.368 79.832,164.460 79.792,162.240 79.792 C 160.020 79.792,159.111 79.832,160.221 79.881 M228.506 84.505 L 228.516 88.932 233.203 88.941 L 237.891 88.950 233.274 88.870 L 228.658 88.790 228.578 84.434 L 228.497 80.078 228.506 84.505 M61.458 80.550 C 61.458 80.595,61.839 80.976,62.305 81.397 L 63.151 82.161 62.386 81.315 C 61.673 80.526,61.458 80.349,61.458 80.550 M189.779 87.954 C 190.817 88.003,192.516 88.003,193.555 87.954 C 194.593 87.904,193.743 87.864,191.667 87.864 C 189.590 87.864,188.740 87.904,189.779 87.954 M228.494 95.833 C 228.494 98.483,228.532 99.567,228.579 98.242 C 228.627 96.917,228.627 94.749,228.579 93.424 C 228.532 92.100,228.494 93.184,228.494 95.833 M215.443 98.698 C 215.443 99.486,215.491 99.808,215.551 99.414 C 215.611 99.020,215.611 98.376,215.551 97.982 C 215.491 97.588,215.443 97.910,215.443 98.698 M228.481 105.078 C 228.481 106.510,228.525 107.063,228.578 106.306 C 228.630 105.550,228.630 104.378,228.576 103.702 C 228.523 103.027,228.480 103.646,228.481 105.078 M201.934 119.271 C 201.934 122.350,201.971 123.610,202.017 122.070 C 202.063 120.531,202.063 118.011,202.017 116.471 C 201.971 114.932,201.934 116.191,201.934 119.271 M59.435 136.458 C 59.435 136.960,59.489 137.165,59.555 136.914 C 59.620 136.663,59.620 136.253,59.555 136.003 C 59.489 135.752,59.435 135.957,59.435 136.458 M292.403 151.237 C 305.484 151.274,326.813 151.274,339.799 151.237 C 352.786 151.200,342.083 151.169,316.016 151.169 C 289.948 151.169,279.322 151.200,292.403 151.237 M177.279 154.102 C 188.486 154.139,206.826 154.139,218.034 154.102 C 229.242 154.064,220.072 154.033,197.656 154.033 C 175.241 154.033,166.071 154.064,177.279 154.102 M156.529 156.541 C 154.482 156.960,153.303 158.813,153.438 161.395 L 153.516 162.891 197.526 162.892 L 241.536 162.894 197.526 162.761 C 173.320 162.688,154.049 162.599,154.701 162.564 C 155.352 162.529,156.043 162.354,156.236 162.174 C 156.517 161.914,156.550 161.914,156.403 162.174 C 156.293 162.370,156.370 162.500,156.597 162.500 C 156.805 162.500,157.046 162.317,157.132 162.093 C 157.219 161.865,157.421 161.768,157.590 161.873 C 157.772 161.985,157.823 161.946,157.717 161.775 C 157.620 161.618,157.304 161.536,157.014 161.592 C 156.321 161.725,155.690 161.472,155.893 161.143 C 155.998 160.973,156.116 160.981,156.231 161.167 C 156.348 161.357,156.674 161.375,157.214 161.220 C 157.759 161.064,158.123 161.086,158.338 161.289 C 158.547 161.486,158.536 161.392,158.308 161.013 C 158.117 160.696,157.898 160.529,157.821 160.641 C 157.745 160.752,157.389 160.759,157.031 160.656 C 156.485 160.499,156.464 160.461,156.901 160.422 C 157.195 160.396,157.279 160.318,157.095 160.244 C 156.915 160.171,156.822 160.024,156.888 159.917 C 156.954 159.810,156.838 159.722,156.629 159.722 C 156.421 159.722,156.250 159.859,156.250 160.026 C 156.250 160.193,156.091 160.330,155.897 160.330 C 155.631 160.330,155.591 160.116,155.736 159.473 C 155.843 159.002,155.855 158.572,155.764 158.518 C 155.673 158.463,155.734 158.450,155.899 158.488 C 156.064 158.527,156.416 158.382,156.680 158.166 C 156.945 157.950,157.023 157.843,156.854 157.928 C 156.685 158.012,156.472 157.961,156.382 157.815 C 156.115 157.383,156.998 157.202,157.490 157.588 C 157.900 157.909,157.909 157.899,157.585 157.487 C 156.885 156.593,155.101 157.421,154.400 158.965 C 154.135 159.548,153.916 159.850,153.913 159.635 C 153.910 159.421,154.137 158.870,154.417 158.411 C 155.481 156.666,153.376 156.777,186.511 156.711 C 203.025 156.678,213.958 156.620,210.807 156.582 C 197.680 156.423,157.255 156.393,156.529 156.541 M263.668 187.760 C 263.668 205.163,263.699 212.282,263.737 203.581 C 263.775 194.880,263.775 180.641,263.737 171.940 C 263.699 163.239,263.668 170.358,263.668 187.760 M238.356 156.761 C 238.899 156.866,239.666 157.234,240.061 157.578 C 240.456 157.922,240.395 157.822,239.925 157.357 C 239.287 156.725,238.854 156.518,238.220 156.540 L 237.370 156.570 238.356 156.761 M156.164 158.963 C 156.046 159.270,156.169 159.375,156.649 159.375 C 157.002 159.375,157.292 159.512,157.292 159.679 C 157.292 159.846,157.362 159.912,157.448 159.826 C 157.535 159.740,157.417 159.401,157.188 159.073 C 156.914 158.683,156.769 158.610,156.767 158.861 C 156.764 159.171,156.720 159.178,156.543 158.897 C 156.365 158.618,156.292 158.630,156.164 158.963 M291.232 159.831 C 305.100 159.868,327.718 159.868,341.492 159.831 C 355.266 159.793,343.919 159.763,316.276 159.763 C 288.633 159.763,277.363 159.793,291.232 159.831 M151.168 192.188 C 151.168 210.020,151.199 217.314,151.237 208.398 C 151.275 199.482,151.275 184.893,151.237 175.977 C 151.199 167.061,151.168 174.355,151.168 192.188 M366.271 188.281 C 366.271 203.822,366.303 210.179,366.341 202.409 C 366.379 194.639,366.379 181.924,366.341 174.154 C 366.303 166.383,366.271 172.741,366.271 188.281 M158.333 162.298 C 158.333 162.409,158.802 162.500,159.375 162.500 C 159.948 162.500,160.417 162.454,160.417 162.397 C 160.417 162.341,159.948 162.250,159.375 162.195 C 158.802 162.140,158.333 162.187,158.333 162.298 M153.225 165.480 C 153.146 165.686,153.127 166.067,153.183 166.326 C 153.247 166.620,153.336 166.479,153.420 165.951 C 153.562 165.064,153.470 164.841,153.225 165.480 M241.532 194.792 C 241.532 211.048,241.563 217.699,241.602 209.570 C 241.640 201.442,241.640 188.141,241.602 180.013 C 241.563 171.885,241.532 178.535,241.532 194.792 M272.780 189.583 C 272.780 200.827,272.812 205.426,272.851 199.805 C 272.891 194.183,272.891 184.984,272.851 179.362 C 272.812 173.740,272.780 178.340,272.780 189.583 M153.199 172.005 C 153.201 172.721,153.252 172.983,153.312 172.588 C 153.372 172.192,153.370 171.606,153.308 171.285 C 153.247 170.965,153.198 171.289,153.199 172.005 M344.800 171.806 C 344.795 171.983,345.114 172.457,345.508 172.860 C 345.902 173.263,346.035 173.353,345.804 173.059 C 345.573 172.766,345.254 172.292,345.096 172.005 C 344.937 171.719,344.804 171.629,344.800 171.806 M153.199 175.130 C 153.201 175.846,153.252 176.108,153.312 175.713 C 153.372 175.317,153.370 174.731,153.308 174.410 C 153.247 174.090,153.198 174.414,153.199 175.130 M309.715 177.493 L 308.984 178.163 309.831 177.574 C 310.296 177.250,310.677 176.949,310.677 176.904 C 310.677 176.699,310.389 176.875,309.715 177.493 M153.230 181.120 C 153.231 183.411,153.271 184.314,153.319 183.126 C 153.367 181.937,153.367 180.062,153.318 178.959 C 153.270 177.856,153.230 178.828,153.230 181.120 M315.253 177.889 C 315.673 178.404,316.068 178.781,316.132 178.727 C 316.197 178.673,315.854 178.252,315.370 177.791 L 314.491 176.953 315.253 177.889 M308.408 180.599 C 308.410 181.315,308.460 181.577,308.520 181.181 C 308.580 180.785,308.578 180.200,308.517 179.879 C 308.455 179.559,308.406 179.883,308.408 180.599 M69.225 181.445 C 74.141 181.485,82.110 181.485,86.933 181.445 C 91.757 181.406,87.734 181.373,77.995 181.373 C 68.255 181.373,64.309 181.406,69.225 181.445 M315.253 183.309 L 314.491 184.245 315.370 183.407 C 315.854 182.946,316.197 182.525,316.132 182.471 C 316.068 182.417,315.673 182.794,315.253 183.309 M153.231 189.583 C 153.231 191.947,153.270 192.913,153.319 191.732 C 153.367 190.550,153.367 188.617,153.319 187.435 C 153.270 186.253,153.231 187.220,153.231 189.583 M178.516 189.323 C 178.293 189.753,178.170 190.104,178.242 190.104 C 178.313 190.104,178.554 189.753,178.776 189.323 C 178.998 188.893,179.121 188.542,179.050 188.542 C 178.978 188.542,178.738 188.893,178.516 189.323 M168.880 191.288 C 171.562 193.772,174.534 193.798,177.139 191.361 L 178.255 190.317 177.118 191.238 C 174.701 193.196,170.760 193.444,169.686 191.706 C 169.592 191.554,169.138 191.181,168.677 190.877 C 167.944 190.393,167.970 190.445,168.880 191.288 M70.136 191.081 C 74.551 191.121,81.699 191.121,86.021 191.081 C 90.344 191.040,86.732 191.008,77.995 191.008 C 69.258 191.008,65.721 191.041,70.136 191.081 M333.753 191.654 C 333.912 191.876,334.172 192.292,334.331 192.578 C 334.490 192.865,334.623 192.959,334.627 192.788 C 334.632 192.617,334.372 192.201,334.049 191.864 C 333.727 191.526,333.594 191.432,333.753 191.654 M166.276 191.667 C 165.555 191.850,165.545 191.868,166.146 191.892 C 166.504 191.907,166.973 191.806,167.188 191.667 C 167.631 191.380,167.402 191.380,166.276 191.667 M164.968 192.122 C 165.680 193.923,165.311 195.397,163.831 196.653 C 163.232 197.162,163.011 197.497,163.222 197.578 C 163.704 197.761,164.323 199.079,164.322 199.922 L 164.322 200.651 167.051 200.569 C 169.720 200.489,169.792 200.471,170.313 199.739 C 171.504 198.066,174.393 197.288,176.693 198.019 C 176.979 198.110,176.862 198.013,176.432 197.802 C 174.696 196.952,172.320 197.499,170.601 199.147 L 169.438 200.260 166.946 200.230 C 165.390 200.210,164.747 200.131,165.234 200.020 C 165.664 199.921,165.986 199.701,165.951 199.530 C 165.915 199.359,166.032 199.215,166.211 199.210 C 166.425 199.205,166.394 199.093,166.121 198.885 C 165.892 198.710,165.735 198.363,165.772 198.112 C 165.809 197.861,165.687 197.656,165.501 197.656 C 165.314 197.656,165.178 197.510,165.198 197.331 C 165.218 197.152,165.117 196.988,164.974 196.966 C 164.831 196.945,164.739 197.021,164.770 197.136 C 164.802 197.252,164.626 197.504,164.380 197.696 C 163.968 198.019,163.964 198.007,164.321 197.554 C 164.681 197.096,164.668 197.074,164.132 197.243 C 163.635 197.401,163.672 197.305,164.395 196.555 C 164.857 196.076,165.293 195.706,165.365 195.733 C 165.581 195.815,165.660 193.955,165.491 192.773 C 165.404 192.165,165.210 191.667,165.060 191.667 C 164.906 191.667,164.866 191.864,164.968 192.122 M284.789 195.853 C 284.418 196.294,284.118 196.792,284.123 196.960 C 284.127 197.128,284.260 197.031,284.418 196.745 C 284.577 196.458,284.945 195.960,285.237 195.638 C 285.529 195.316,285.699 195.052,285.615 195.052 C 285.532 195.052,285.160 195.413,284.789 195.853 M153.206 197.005 C 153.207 197.865,153.256 198.185,153.314 197.717 C 153.372 197.249,153.370 196.546,153.311 196.154 C 153.252 195.763,153.204 196.146,153.206 197.005 M281.310 198.438 C 281.310 198.939,281.364 199.144,281.430 198.893 C 281.495 198.643,281.495 198.232,281.430 197.982 C 281.364 197.731,281.310 197.936,281.310 198.438 M283.920 198.568 C 283.923 199.141,283.976 199.344,284.038 199.020 C 284.101 198.696,284.098 198.228,284.033 197.979 C 283.968 197.730,283.917 197.995,283.920 198.568 M177.474 198.344 C 178.800 199.521,179.288 199.864,178.777 199.260 C 178.493 198.924,178.025 198.529,177.737 198.382 C 177.449 198.234,177.331 198.217,177.474 198.344 M153.196 199.740 C 153.196 200.384,153.247 200.648,153.309 200.326 C 153.371 200.003,153.371 199.476,153.309 199.154 C 153.247 198.831,153.196 199.095,153.196 199.740 M180.274 203.255 C 180.277 203.828,180.330 204.032,180.393 203.708 C 180.455 203.384,180.452 202.915,180.387 202.666 C 180.322 202.417,180.271 202.682,180.274 203.255 M167.160 202.810 C 165.111 202.888,164.255 203.475,164.831 204.407 C 164.960 204.615,165.088 204.445,165.191 203.927 C 165.351 203.125,165.352 203.125,167.126 203.125 L 168.900 203.125 168.959 203.971 C 169.234 207.864,174.521 210.494,177.479 208.211 C 177.822 207.946,177.603 207.985,176.823 208.328 C 173.505 209.786,169.720 207.646,169.299 204.074 L 169.141 202.734 167.160 202.810 M190.425 203.646 C 190.425 204.147,190.479 204.352,190.544 204.102 C 190.610 203.851,190.610 203.441,190.544 203.190 C 190.479 202.939,190.425 203.145,190.425 203.646 M153.196 205.990 C 153.196 206.634,153.247 206.898,153.309 206.576 C 153.371 206.253,153.371 205.726,153.309 205.404 C 153.247 205.081,153.196 205.345,153.196 205.990 M165.049 206.185 C 164.980 206.984,165.076 207.633,165.320 208.017 C 165.668 208.567,165.635 208.690,164.880 209.629 C 163.840 210.924,163.846 211.714,164.905 212.920 C 166.448 214.678,167.878 214.978,168.943 213.766 C 169.338 213.317,170.130 212.733,170.703 212.470 C 171.276 212.206,171.591 211.988,171.402 211.985 C 170.843 211.976,169.984 212.502,168.954 213.486 C 166.657 215.682,163.119 212.264,165.104 209.766 C 165.981 208.663,166.011 208.532,165.579 207.730 C 165.410 207.417,165.301 206.663,165.338 206.055 C 165.428 204.539,165.182 204.650,165.049 206.185 M185.872 207.736 C 186.195 207.798,186.722 207.798,187.044 207.736 C 187.367 207.674,187.103 207.623,186.458 207.623 C 185.814 207.623,185.550 207.674,185.872 207.736 M153.230 212.370 C 153.231 214.661,153.271 215.564,153.319 214.376 C 153.367 213.187,153.367 211.312,153.318 210.209 C 153.270 209.106,153.230 210.078,153.230 212.370 M294.466 208.529 C 305.244 208.566,322.881 208.566,333.659 208.529 C 344.437 208.491,335.618 208.460,314.063 208.460 C 292.507 208.460,283.688 208.491,294.466 208.529 M356.450 208.522 C 356.918 208.580,357.621 208.579,358.012 208.519 C 358.404 208.460,358.021 208.413,357.161 208.414 C 356.302 208.415,355.982 208.464,356.450 208.522 M294.596 210.612 C 306.305 210.649,325.465 210.649,337.174 210.612 C 348.883 210.574,339.303 210.544,315.885 210.544 C 292.467 210.544,282.887 210.574,294.596 210.612 M172.917 212.034 C 172.988 212.105,173.454 212.300,173.952 212.468 C 174.450 212.637,174.743 212.662,174.603 212.526 C 174.463 212.389,173.997 212.193,173.568 212.091 C 173.138 211.989,172.845 211.964,172.917 212.034 M175.890 213.802 C 177.255 215.392,177.529 215.642,176.891 214.714 C 176.595 214.284,176.023 213.639,175.619 213.281 C 175.131 212.849,175.222 213.024,175.890 213.802 M181.849 214.925 C 181.734 215.112,181.351 215.464,180.997 215.706 C 180.643 215.948,180.442 216.146,180.550 216.146 C 180.911 216.146,181.985 215.339,182.131 214.958 C 182.311 214.490,182.128 214.468,181.849 214.925 M291.101 216.862 C 304.899 216.899,327.399 216.899,341.101 216.862 C 354.804 216.825,343.516 216.794,316.016 216.794 C 288.516 216.794,277.304 216.825,291.101 216.862 M157.885 227.796 C 158.570 227.850,159.625 227.849,160.229 227.794 C 160.834 227.740,160.273 227.696,158.984 227.697 C 157.695 227.697,157.201 227.742,157.885 227.796 M234.440 227.796 C 235.120 227.849,236.234 227.849,236.914 227.796 C 237.594 227.742,237.038 227.698,235.677 227.698 C 234.316 227.698,233.760 227.742,234.440 227.796 M60.742 234.034 C 60.993 234.099,61.403 234.099,61.654 234.034 C 61.904 233.968,61.699 233.915,61.198 233.915 C 60.697 233.915,60.492 233.968,60.742 234.034 M299.349 238.542 L 295.703 238.694 299.268 238.748 C 301.425 238.781,302.897 238.699,302.995 238.542 C 303.083 238.398,303.120 238.305,303.075 238.335 C 303.031 238.365,301.354 238.458,299.349 238.542 M331.586 238.735 C 332.559 238.785,334.083 238.785,334.972 238.734 C 335.861 238.684,335.065 238.642,333.203 238.643 C 331.341 238.643,330.614 238.685,331.586 238.735 " stroke="none" fill="#95aec0" fill-rule="evenodd"></path><path id="path4" d="M295.659 23.633 C 309.384 23.670,331.767 23.670,345.398 23.633 C 359.029 23.596,347.799 23.565,320.443 23.565 C 293.086 23.565,281.933 23.596,295.659 23.633 M90.175 32.292 C 90.175 32.936,90.226 33.200,90.288 32.878 C 90.350 32.555,90.350 32.028,90.288 31.706 C 90.226 31.383,90.175 31.647,90.175 32.292 M107.623 43.229 C 107.623 43.874,107.674 44.137,107.736 43.815 C 107.798 43.493,107.798 42.965,107.736 42.643 C 107.674 42.321,107.623 42.585,107.623 43.229 M192.557 49.479 C 192.557 52.272,192.595 53.415,192.642 52.018 C 192.689 50.622,192.689 48.337,192.642 46.940 C 192.595 45.544,192.557 46.686,192.557 49.479 M40.179 50.130 C 40.181 50.846,40.231 51.108,40.291 50.713 C 40.351 50.317,40.349 49.731,40.287 49.410 C 40.226 49.090,40.177 49.414,40.179 50.130 M324.847 55.208 C 324.847 57.715,324.886 58.740,324.933 57.487 C 324.981 56.234,324.981 54.183,324.933 52.930 C 324.886 51.676,324.847 52.702,324.847 55.208 M35.875 52.788 C 36.199 52.851,36.668 52.848,36.917 52.783 C 37.166 52.718,36.901 52.667,36.328 52.670 C 35.755 52.673,35.551 52.726,35.875 52.788 M226.427 84.115 C 226.427 96.647,226.458 101.774,226.497 95.508 C 226.536 89.242,226.536 78.988,226.497 72.721 C 226.458 66.455,226.427 71.582,226.427 84.115 M326.367 65.033 C 326.904 65.090,327.783 65.090,328.320 65.033 C 328.857 64.977,328.418 64.931,327.344 64.931 C 326.270 64.931,325.830 64.977,326.367 65.033 M62.164 66.273 C 61.643 66.452,61.144 66.526,61.055 66.437 C 60.967 66.349,60.918 66.393,60.947 66.536 C 61.048 67.041,60.935 67.477,60.735 67.354 C 60.624 67.285,60.577 67.776,60.632 68.445 C 60.687 69.114,60.745 69.858,60.760 70.099 C 60.776 70.339,60.851 70.520,60.928 70.501 C 61.005 70.482,61.439 70.664,61.893 70.906 C 62.653 71.311,64.921 71.439,64.693 71.063 C 64.569 70.859,65.495 70.009,65.661 70.175 C 66.051 70.565,65.688 67.428,65.292 66.991 C 65.045 66.718,64.931 66.397,65.038 66.278 C 65.146 66.159,65.105 66.136,64.946 66.227 C 64.787 66.317,64.310 66.291,63.884 66.169 C 63.383 66.026,62.777 66.062,62.164 66.273 M63.674 67.185 C 63.584 67.329,63.683 67.377,63.899 67.295 C 64.128 67.206,64.402 67.370,64.579 67.701 C 64.964 68.420,64.823 69.684,64.369 69.590 C 64.179 69.551,64.099 69.639,64.190 69.787 C 64.392 70.115,63.304 70.558,62.760 70.369 C 61.342 69.876,61.018 68.353,62.144 67.467 C 62.840 66.920,63.966 66.712,63.674 67.185 M56.641 77.132 C 55.781 77.542,54.873 77.827,54.622 77.765 C 54.371 77.703,54.219 77.739,54.285 77.845 C 54.574 78.313,50.265 79.256,46.402 79.569 C 44.407 79.731,44.279 79.775,44.779 80.125 C 45.077 80.333,45.262 80.600,45.189 80.718 C 45.117 80.835,45.262 80.915,45.511 80.895 C 45.788 80.873,45.930 81.010,45.877 81.250 C 45.829 81.465,45.873 81.557,45.975 81.456 C 46.235 81.196,47.707 81.999,47.521 82.300 C 47.434 82.440,47.561 82.472,47.816 82.375 C 48.143 82.249,48.205 82.296,48.049 82.548 C 47.912 82.770,47.937 82.831,48.120 82.718 C 48.500 82.483,50.798 83.616,50.598 83.940 C 50.509 84.083,50.574 84.112,50.747 84.006 C 51.142 83.761,53.697 84.603,53.504 84.914 C 53.424 85.044,53.526 85.086,53.730 85.008 C 53.935 84.929,54.791 85.043,55.632 85.261 C 59.465 86.254,70.686 87.176,69.328 86.386 C 69.001 86.196,68.825 85.940,68.937 85.817 C 69.049 85.694,69.005 85.671,68.839 85.766 C 68.448 85.990,67.668 85.693,67.854 85.392 C 67.932 85.266,67.795 85.239,67.549 85.334 C 67.248 85.449,67.163 85.407,67.289 85.203 C 67.414 85.000,67.329 84.958,67.028 85.073 C 66.701 85.199,66.638 85.152,66.794 84.900 C 66.934 84.674,66.907 84.617,66.716 84.735 C 66.333 84.972,64.282 83.610,64.498 83.261 C 64.589 83.113,64.548 83.064,64.406 83.152 C 64.040 83.378,62.976 82.575,63.187 82.234 C 63.283 82.078,63.245 82.023,63.102 82.111 C 62.764 82.320,61.127 80.633,61.389 80.345 C 61.499 80.224,61.452 80.203,61.286 80.298 C 60.879 80.531,59.279 78.498,59.529 78.065 C 59.633 77.883,59.618 77.827,59.494 77.939 C 59.371 78.052,59.029 77.749,58.736 77.266 L 58.203 76.387 56.641 77.132 M208.971 91.276 C 208.971 96.289,209.006 98.303,209.049 95.751 C 209.092 93.200,209.092 89.098,209.049 86.637 C 209.006 84.175,208.971 86.263,208.971 91.276 M215.472 92.839 C 215.472 95.417,215.511 96.436,215.559 95.104 C 215.606 93.772,215.606 91.663,215.558 90.417 C 215.511 89.171,215.472 90.260,215.472 92.839 M158.138 102.798 C 159.535 102.845,161.820 102.845,163.216 102.798 C 164.613 102.751,163.470 102.713,160.677 102.713 C 157.884 102.713,156.742 102.751,158.138 102.798 M231.315 102.798 C 232.712 102.845,234.997 102.845,236.393 102.798 C 237.790 102.751,236.647 102.713,233.854 102.713 C 231.061 102.713,229.919 102.751,231.315 102.798 M60.010 112.044 L 59.245 112.891 60.091 112.126 C 60.880 111.413,61.057 111.198,60.856 111.198 C 60.811 111.198,60.430 111.579,60.010 112.044 M192.554 118.490 C 192.554 120.853,192.593 121.820,192.642 120.638 C 192.690 119.456,192.690 117.523,192.642 116.341 C 192.593 115.160,192.554 116.126,192.554 118.490 M115.963 135.677 C 115.963 136.465,116.012 136.787,116.072 136.393 C 116.132 135.999,116.132 135.355,116.072 134.961 C 116.012 134.567,115.963 134.889,115.963 135.677 M205.664 187.435 C 210.570 187.474,218.597 187.474,223.503 187.435 C 228.408 187.395,224.395 187.363,214.583 187.363 C 204.772 187.363,200.758 187.395,205.664 187.435 M185.491 192.578 C 185.493 193.294,185.544 193.556,185.604 193.160 C 185.663 192.765,185.662 192.179,185.600 191.858 C 185.538 191.538,185.489 191.862,185.491 192.578 M179.081 227.799 C 188.989 227.837,205.278 227.837,215.279 227.799 C 225.281 227.762,217.174 227.731,197.266 227.731 C 177.357 227.731,169.174 227.762,179.081 227.799 " stroke="none" fill="#cee1ec" fill-rule="evenodd"></path><path id="path5" d="" stroke="none" fill="#ea856d" fill-rule="evenodd"></path></g></svg>